# xmcd
#
# Track frame offsets: 
#        150
#        28122
#        51662
#        77119
#        98867
#        122863
#        146789
#        169817
#        190814
#        211809
#
# Disc length: 3175 seconds
#
# Revision: 0
# Processed by: cddbd v1.5.2PL0 Copyright (c) Steve Scherf et al.
# Submitted via: ExactAudioCopy v1.0b3
#
DISCID=930c650a
DTITLE=Manh Quynh - Tinh Say
DYEAR=2000
DGENRE=
TTITLE0=Tien em ngay cuoi
TTITLE1=Tinh yeu don phuong
TTITLE2=Han
TTITLE3=Tinh cu chua quen
TTITLE4=Vet thuong cuoi cung
TTITLE5=Ly ruou nong
TTITLE6=Nho
TTITLE7=Ru em vao mong
TTITLE8=Nguoi thuong ke nho
TTITLE9=Bang khuang noi nho
EXTD=
EXTT0=
EXTT1=
EXTT2=
EXTT3=
EXTT4=
EXTT5=
EXTT6=
EXTT7=
EXTT8=
EXTT9=
PLAYORDER=
